<?xml version="1.0" encoding="utf-8"?>
<!-- Generator: Adobe Illustrator 19.1.0, SVG Export Plug-In . SVG Version: 6.00 Build 0)  -->
<svg version="1.1" id="レイヤー_1" xmlns="http://www.w3.org/2000/svg" xmlns:xlink="http://www.w3.org/1999/xlink" x="0px"
	 y="0px" viewBox="-396.9 258.4 292.7 81.1" style="enable-background:new -396.9 258.4 292.7 81.1;" xml:space="preserve">
<style type="text/css">
	.st0{fill:#231815;}
</style>
<g>
	<path class="st0" d="M-305.2,319c1.6,0,2.4-0.1,3.1-0.2v3.4c-0.8-0.1-1.6-0.1-3.1-0.1h-5.3v3h6.6c1.5,0,2.3,0,3.1-0.2v3.4
		c-0.9-0.1-1.9-0.2-3.1-0.2h-5.2c2.2,3.1,5.1,5.4,9.1,7c-0.9,1.2-1.2,1.8-2,3.2c-4-2.2-6.4-4.4-8.7-7.7c0.1,1.4,0.1,2.2,0.1,2.4v3.3
		c0,1,0.1,1.9,0.2,2.8h-3.7c0.1-0.8,0.2-1.6,0.2-2.8v-3.4c0-0.2,0-0.4,0-0.8c0-0.2,0-0.4,0-0.6c0-0.5,0-0.6,0.1-1
		c-1.2,1.9-1.9,2.7-3.6,4.2c-1.6,1.4-2.7,2.3-4.6,3.3c-0.6-1.3-1-2-2-3.1c2-0.9,3.6-1.9,5.6-3.6c1.1-1,2.1-2.1,3.1-3.4h-4.7
		c-1.3,0-2.1,0.1-3.1,0.2V325c1,0.1,1.7,0.2,3.1,0.2h6.1v-3h-4.7c-1.6,0-2.3,0-3.2,0.1v-3.4c0.9,0.1,1.6,0.2,3.1,0.2h4.8v-1.4
		c0-0.7-0.1-1.1-0.1-1.7h3.5c-0.1,0.5-0.1,0.9-0.1,1.7v1.4H-305.2z"/>
	<path class="st0" d="M-295,329.5c-1.3,0-2.1,0-3.1,0.2v-3.3c0.9,0.1,1.5,0.2,3,0.2h1.7c-0.4-1.3-0.9-2.4-1.7-3.8l3-1
		c0.7,1.3,1.2,2.2,1.8,3.9l-2.4,0.9h4.2v-5h-5.6c-1.3,0-2,0-2.8,0.1v-3.3c0.9,0.1,1.7,0.2,3,0.2h5.4v-0.7c0-0.8,0-1.2-0.1-1.9h3.5
		c-0.1,0.6-0.1,1.1-0.1,1.9v0.6h5.8c1.5,0,2.3,0,3.1-0.2v3.3c-0.8-0.1-1.5-0.1-2.8-0.1h-6.1v5h1.5c1-1.7,1.6-2.9,2.1-4.7l3.2,0.9
		c-0.6,1.4-1,2.3-1.9,3.8h2.1c1.5,0,2.2,0,2.9-0.2v3.3c-0.9-0.1-1.8-0.2-3.1-0.2h-5.1c1.2,1.5,2.3,2.6,3.8,3.6c1.4,1,2.6,1.6,5,2.5
		c-0.9,1.1-1.3,1.8-2,3.2c-2.4-1.3-3.8-2.2-5.3-3.5c-1.3-1.2-2.2-2.2-3.4-3.8c0,0.7,0.1,1.5,0.1,2.2v3.1c0,1,0.1,1.7,0.2,2.6h-3.6
		c0.1-0.8,0.2-1.6,0.2-2.6v-3.1c0-0.4,0-1.4,0.1-2.3c-1.5,2.2-2.4,3.2-4,4.5c-1.3,1.1-2.4,1.8-4.2,2.7c-0.6-1.3-1.1-2-2-3.1
		c2.3-1,4.4-2.3,5.9-3.7c0.9-0.7,1.5-1.4,2.3-2.5H-295z"/>
	<path class="st0" d="M-262.2,331.8c-1.4,3.2-3.1,4.7-5.2,4.7c-3.1,0-5.3-3-5.3-7.4c0-2.9,1-5.5,2.8-7.5c2.2-2.4,5.3-3.6,8.9-3.6
		c6.3,0,10.3,3.8,10.3,9.7c0,4.6-2.3,8.1-6.3,9.7c-1.2,0.5-2.2,0.7-4,1c-0.5-1.6-0.9-2.3-1.9-3.6c2.2-0.2,3.8-0.6,5-1.2
		c2.2-1.2,3.5-3.5,3.5-6.2c0-2.2-1-4.1-2.7-5.3c-0.7-0.5-1.3-0.7-2.3-0.8C-260,325.6-260.9,328.9-262.2,331.8z M-266.2,322.7
		c-1.9,1.5-3.1,3.9-3.1,6.4c0,1.9,0.8,3.4,1.8,3.4c0.7,0,1.5-1,2.3-3c0.9-2.2,1.7-5.4,2-8.1C-264.4,321.6-265.2,322-266.2,322.7z"/>
	<path class="st0" d="M-247.9,320.3c0.9,0.2,2.1,0.3,3.6,0.3c0.2,0,0.2,0,0.8,0c0.2-1.3,0.4-3,0.4-3.7c0-0.1,0-0.2,0-0.4l4,0.3
		c-0.2,0.6-0.2,0.6-0.5,2.4c-0.1,0.7-0.1,0.7-0.2,1.2c1.8-0.2,2.9-0.4,4.2-0.7l0.1,3.4c-0.5,0-0.5,0-1.4,0.2
		c-1.1,0.2-2.2,0.3-3.5,0.4c-0.4,2.2-0.8,3.8-1.5,6.2c-0.8,2.7-1,3.6-2.2,6.9c-0.3,0.7-0.5,1.3-0.6,1.7l-3.9-1.4
		c1.7-3.2,3.5-8.7,4.4-13.3h-0.7l-2.7-0.1c-0.2,0-0.3,0-0.5,0L-247.9,320.3z M-234.8,330.4c-1,1.3-1.3,1.9-1.3,2.8
		c0,1.2,1.2,1.8,3.6,1.8c1.8,0,4.2-0.4,5.6-1l0.3,3.7c-0.5,0-0.7,0.1-1.3,0.2c-2.1,0.3-3.3,0.4-4.8,0.4c-2.3,0-4-0.3-5.2-1.1
		c-1.2-0.7-1.9-1.9-1.9-3.3c0-1.4,0.5-2.6,1.9-4.6L-234.8,330.4z M-227.5,327.4c-1.2-0.1-1.9-0.2-3.2-0.2c-2.6,0-4.3,0.2-6.8,0.7
		l-0.3-3.3c3.8-0.7,5-0.8,7.9-0.8c0.6,0,0.7,0,2.3,0L-227.5,327.4z"/>
	<path class="st0" d="M-217.8,317.4c0,1.1,0.3,2.6,0.6,3.9c1.4-0.6,3-0.9,4.6-0.9c0.1,0,0.4,0,0.6,0c0.5-2.1,0.7-2.9,0.7-3.8
		l3.8,0.7c-0.1,0.3-0.2,0.5-0.3,0.7c-0.3,1.2-0.7,2.5-0.8,2.8c1.5,0.4,2.4,0.9,3.4,1.6c1.9,1.5,3,3.7,3,6.3c0,3.9-2.2,6.9-6,8.5
		c-1.3,0.5-2.4,0.9-4.3,1.2c-0.4-1.5-0.7-2.1-1.9-3.6c5.5-0.4,8.5-2.6,8.5-6.5c0-2.3-1.2-3.8-3.5-4.6c-1.2,3.7-2.7,6.8-4.4,9.1
		c-1.9,2.6-3.8,3.8-5.7,3.8c-2.8,0-4.7-2.4-4.7-6.1c0-3.1,1.4-5.8,4-7.9c-0.1-0.3-0.4-1.6-0.9-3.9c-0.1-0.3-0.1-0.5-0.3-0.9
		L-217.8,317.4z M-221,330.6c0,1.6,0.6,2.7,1.6,2.7c0.6,0,1.3-0.5,2-1.3c-1-2.1-1.3-3.1-1.9-5.4C-220.4,327.7-221,329.2-221,330.6z
		 M-215.2,328.9c1.2-2.3,1.6-3.2,2.3-5.3c-1.5,0-2.5,0.3-3.7,0.9C-216.1,326.4-216,326.9-215.2,328.9z"/>
	<path class="st0" d="M-193.6,317.4c-1.1,3-1.9,8.7-2,14c0.3-1,0.3-1,0.5-1.3l0.5-1.2l2.2,0.9c-1.3,2.9-2.1,5.6-2.1,7.6
		c0,0.3,0,0.4,0,0.7l-3.7,0.2c0-0.5,0-0.7-0.1-1.2c-0.5-3.2-0.7-5.2-0.7-7.7c0-3.1,0.3-6.2,1-9.8c0.3-1.6,0.3-1.8,0.4-2.5
		L-193.6,317.4z M-186.6,328.2c-1.2,1.5-1.8,2.6-1.8,3.5c0,1.3,1.3,2,3.6,2c2.2,0,4.4-0.4,6.1-1l0.3,3.8c-0.4,0-0.6,0.1-1.1,0.2
		c-2.2,0.4-3.5,0.5-5.3,0.5c-3.2,0-5.3-0.8-6.4-2.3c-0.5-0.7-0.8-1.6-0.8-2.6c0-1.6,0.8-3.4,2.3-5.4L-186.6,328.2z M-191.2,319.5
		c1.2,0.3,2.5,0.4,4.8,0.4c2.8,0,5.3-0.3,6.9-0.7l0.2,3.7c-0.2,0-0.3,0-0.5,0c-2.1,0.3-4.6,0.5-6.7,0.5c-1.6,0-2.5,0-4.1-0.2
		c-0.1,0-0.3,0-0.7-0.1L-191.2,319.5z"/>
</g>
<g>
	<path class="st0" d="M-394.2,258.6h3.2l-2.1,9.6h3.4v5.6h-7.3v-5.4L-394.2,258.6z M-383.2,258.6h3.2l-2.1,9.6h3.4v5.6h-7.3v-5.4
		L-383.2,258.6z"/>
	<path class="st0" d="M-371.2,264.9c0-4.3,1.9-6.5,5.6-6.5c1.4,0,2.6,0.2,3.6,0.5v3.4c-0.6-0.1-1.3-0.1-2.1-0.1
		c-0.8,0-1.3,0.2-1.6,0.6s-0.5,1-0.5,1.9v1.9h4.2v3.6h-4.2v31h-4.9v-31h-3.1v-3.6h3.1V264.9z"/>
	<path class="st0" d="M-358,276.6c0-5.8,1.3-9.5,4-10.9c1.1-0.6,2.4-0.9,3.8-0.9c3.8,0,6.2,1.5,7.2,4.5c0.6,1.9,1,4.3,1,7.3v12.8
		c0,5.1-0.7,8.4-2,10c-1.4,1.6-3.3,2.4-5.9,2.4c-3.8,0-6.2-1.6-7.2-4.8c-0.6-1.8-0.9-4.4-0.9-7.5V276.6z M-347,275.7
		c0-3.4-0.5-5.5-1.5-6.2c-0.4-0.3-0.9-0.5-1.6-0.5c-1.3,0-2.1,0.6-2.5,1.8s-0.6,2.8-0.6,4.9v15.1c0,3.5,0.5,5.7,1.5,6.4
		c0.4,0.3,0.9,0.5,1.5,0.5c0,0,0.1,0,0.1,0c1.3,0,2.1-0.6,2.5-1.8c0.4-1.2,0.6-2.9,0.6-5.1V275.7z"/>
	<path class="st0" d="M-324.5,264.9c0.1,0,0.1,1,0.1,3.1l0,1.1c-2.9,0-4.9,1-6.2,3v29.3h-4.9v-36h4.9v4c0.4-1.4,1.1-2.5,2.2-3.3
		C-327.3,265.2-326,264.9-324.5,264.9z"/>
	<path class="st0" d="M-306.9,259h4.9v6.5h3.9v3.7h-3.9v26.3c0,0.9,0.2,1.5,0.6,1.7c0.4,0.2,1.5,0.3,3.3,0.3v3.9h-3.4
		c-2.3,0-3.8-0.4-4.4-1.2c-0.7-0.8-1-2.3-1-4.3v-26.7h-3.3v-3.7h3.3V259z"/>
	<path class="st0" d="M-293.1,258.6h4.9v10.5c0.3-1.2,1-2.2,2.1-3c1.1-0.8,2.4-1.3,4-1.3s2.9,0.7,3.9,2c1,1.3,1.5,3.2,1.5,5.8v28.7
		h-4.9V273c0-2.6-1-3.9-3-3.9c-1.1,0-1.9,0.4-2.6,1.1c-0.7,0.8-1,1.9-1,3.4v27.7h-4.9V258.6z"/>
	<path class="st0" d="M-270.4,276.5c0-4.5,0.8-7.7,2.4-9.5c1.3-1.4,3.2-2.1,5.7-2.1c3.6,0,5.9,1.6,6.8,4.7c0.5,1.8,0.8,4.1,0.8,7.1
		v6.8h-10.8v7.2c0,3.1,0.2,5.1,0.7,5.8c0.5,0.8,1.3,1.2,2.4,1.2s1.8-0.4,2.1-1.3c0.4-0.9,0.5-1.9,0.6-2.9c0-1,0-1.9,0-2.7v-2.9h4.8
		v1.5c0,3.8-0.3,6.5-0.8,8c-0.5,1.5-1.3,2.6-2.4,3.3c-1.1,0.7-2.4,1-4,1s-2.9-0.2-3.9-0.6c-1-0.4-1.7-0.9-2.3-1.6
		c-0.6-0.7-1.1-1.7-1.5-3.2c-0.4-1.5-0.6-3.8-0.6-7.1V276.5z M-259.6,275.5c0-2.6-0.1-4.1-0.3-4.6s-0.4-1-0.7-1.4
		c-0.3-0.4-0.8-0.6-1.6-0.6c-1.4,0-2.4,0.6-2.7,1.8s-0.6,2.9-0.6,5v4.4h5.9V275.5z"/>
	<path class="st0" d="M-235,264.9c0-4.3,1.9-6.5,5.6-6.5c1.4,0,2.6,0.2,3.6,0.5v3.4c-0.6-0.1-1.3-0.1-2.1-0.1
		c-0.8,0-1.3,0.2-1.6,0.6s-0.5,1-0.5,1.9v1.9h4.2v3.6h-4.2v31h-4.9v-31h-3.1v-3.6h3.1V264.9z"/>
	<path class="st0" d="M-210.1,265.3h4.9v36h-4.9v-3.7c-0.4,1.2-1,2.2-2,3s-2.2,1.2-3.8,1.2s-2.9-0.7-4.1-2c-1.1-1.3-1.7-3.3-1.7-6
		v-28.5h4.9v28c0,2.8,1,4.3,3.1,4.3c1.2,0,2-0.4,2.6-1.2c0.6-0.8,0.9-1.9,0.9-3.2V265.3z"/>
	<path class="st0" d="M-197.2,259h4.9v6.5h3.9v3.7h-3.9v26.3c0,0.9,0.2,1.5,0.6,1.7c0.4,0.2,1.5,0.3,3.3,0.3v3.9h-3.4
		c-2.3,0-3.8-0.4-4.4-1.2c-0.7-0.8-1-2.3-1-4.3v-26.7h-3.3v-3.7h3.3V259z"/>
	<path class="st0" d="M-172.1,265.3h4.9v36h-4.9v-3.7c-0.4,1.2-1,2.2-2,3s-2.2,1.2-3.8,1.2s-2.9-0.7-4.1-2c-1.1-1.3-1.7-3.3-1.7-6
		v-28.5h4.9v28c0,2.8,1,4.3,3.1,4.3c1.2,0,2-0.4,2.6-1.2c0.6-0.8,0.9-1.9,0.9-3.2V265.3z"/>
	<path class="st0" d="M-149.1,264.9c0.1,0,0.1,1,0.1,3.1l0,1.1c-2.9,0-4.9,1-6.2,3v29.3h-4.9v-36h4.9v4c0.4-1.4,1.1-2.5,2.2-3.3
		C-151.9,265.2-150.6,264.9-149.1,264.9z"/>
	<path class="st0" d="M-145,276.5c0-4.5,0.8-7.7,2.5-9.5c1.3-1.4,3.2-2.1,5.7-2.1c3.6,0,5.9,1.6,6.8,4.7c0.5,1.8,0.8,4.1,0.8,7.1
		v6.8h-10.8v7.2c0,3.1,0.2,5.1,0.7,5.8s1.3,1.2,2.4,1.2c1.1,0,1.8-0.4,2.1-1.3c0.4-0.9,0.5-1.9,0.6-2.9c0-1,0-1.9,0-2.7v-2.9h4.8
		v1.5c0,3.8-0.3,6.5-0.8,8c-0.5,1.5-1.3,2.6-2.4,3.3c-1.1,0.7-2.4,1-4,1c-1.6,0-2.9-0.2-3.9-0.6c-1-0.4-1.7-0.9-2.3-1.6
		c-0.6-0.7-1.1-1.7-1.5-3.2c-0.4-1.5-0.6-3.8-0.6-7.1V276.5z M-134.3,275.5c0-2.6-0.1-4.1-0.3-4.6c-0.2-0.5-0.4-1-0.7-1.4
		s-0.8-0.6-1.6-0.6c-1.4,0-2.4,0.6-2.7,1.8c-0.4,1.2-0.6,2.9-0.6,5v4.4h5.9V275.5z"/>
	<path class="st0" d="M-122.4,258.6h7.3v5.4l-2.7,9.8h-3.2l2.1-9.6h-3.4V258.6z M-111.4,258.6h7.3v5.4l-2.8,9.8h-3.2l2.1-9.6h-3.4
		V258.6z"/>
</g>
</svg>
