<?xml version="1.0" encoding="utf-8"?>
<!-- Generator: Adobe Illustrator 19.1.0, SVG Export Plug-In . SVG Version: 6.00 Build 0)  -->
<svg version="1.1" id="レイヤー_1" xmlns="http://www.w3.org/2000/svg" xmlns:xlink="http://www.w3.org/1999/xlink" x="0px"
	 y="0px" viewBox="303.4 433.1 782 162" style="enable-background:new 303.4 433.1 782 162;" xml:space="preserve">
<style type="text/css">
	.st0{opacity:0.75;}
	.st1{fill:#FFFFFF;}
</style>
<g>
	<g class="st0">
		<rect x="616.2" y="514.2" class="st1" width="22.6" height="5.8"/>
		<path class="st1" d="M856.4,491.9c-2.4-1.5-5.6-2.2-9.3-2.2c-3.9,0-7.1,0.7-9.5,2.2c-3,1.9-4.4,4.3-4.4,7.3v2l0,0
			c0,0.3,0.3,0.7,0.7,0.7h6c0.3,0,0.7-0.3,0.7-0.7l0,0v-1.1c0-1.5,0.5-2.5,1.5-3.2c1.1-0.8,2.9-1.2,5.2-1.2c2.2,0,3.9,0.4,5.1,1.2
			c1,0.7,1.5,1.7,1.5,3.2v42.1c0,2.1-0.8,2.9-1.5,3.4c-1.1,0.8-2.9,1.2-5.1,1.2c-2.3,0-4.1-0.4-5.2-1.2c-0.6-0.5-1.5-1.3-1.5-3.4
			v-17.6c0-2.1,0.8-2.9,1.5-3.4c1.1-0.8,2.9-1.2,5.2-1.2h1.1l0,0c0.3,0,0.7-0.3,0.7-0.7v-4.5c0-0.3-0.3-0.7-0.7-0.7h-1.1
			c-3.9,0-7.1,0.7-9.5,2.2c-3.7,2.2-4.5,5.2-4.5,7.3V543c0,2.1,0.8,5.1,4.5,7.3c2.4,1.5,5.6,2.2,9.5,2.2c3.8,0,7-0.7,9.3-2.2
			c3.7-2.2,4.5-5.2,4.5-7.3v-43.9C860.9,496.2,859.4,493.8,856.4,491.9z"/>
		<path class="st1" d="M753.6,512.2v-13c0-3-1.5-5.5-4.5-7.3c-2.4-1.5-5.6-2.2-9.3-2.2c-3.9,0-7.1,0.7-9.5,2.2
			c-3,1.9-4.4,4.3-4.4,7.3v2c0,0.3,0.3,0.7,0.7,0.7h6c0.3,0,0.7-0.3,0.7-0.7v-1.1c0-1.5,0.5-2.5,1.5-3.2c1.1-0.8,2.9-1.2,5.2-1.2
			c2.2,0,3.9,0.4,5.1,1.2c1,0.7,1.5,1.7,1.5,3.2v12.1c0,1.1-0.8,2-2,2h-2.9l0,0H740c-3.9,0-7.1,0.7-9.4,2.2
			c-3.7,2.2-4.5,5.2-4.5,7.3v19.4c0,2.1,0.8,5.1,4.5,7.3c2.4,1.5,5.6,2.2,9.4,2.2c3.8,0,7-0.7,9.3-2.2c3.7-2.2,4.5-5.2,4.5-7.3V522
			c0-1.1,0.8-2,2-2h3.1v-5.7h-3.1C754.4,514.2,753.6,513.3,753.6,512.2z M746.2,542.2c0,2.1-0.8,2.9-1.5,3.4
			c-1.1,0.8-2.9,1.2-5.1,1.2c-2.3,0-4-0.4-5.2-1.2c-0.6-0.5-1.5-1.3-1.5-3.4v-17.6c0-2.1,0.8-2.9,1.5-3.4c1.1-0.8,2.9-1.2,5.2-1.2
			h1.7l0,0h2.9c1.1,0,2,0.8,2,2L746.2,542.2L746.2,542.2z"/>
		<path class="st1" d="M941.8,540.5h-6c-0.3,0-0.7,0.3-0.7,0.7l0,0v1.1c0,2.1-0.8,2.9-1.5,3.4c-1.1,0.8-2.9,1.2-5.1,1.2
			c-2.3,0-4.1-0.4-5.2-1.2c-0.6-0.5-1.5-1.3-1.5-3.4V525c0-1.7,0.4-2.9,1.2-3.7l15.9-13c2.2-2.3,3.3-5.1,3.3-8.4V472
			c0-2.1-0.8-5-4.5-7.2c-2.4-1.5-5.6-2.2-9.3-2.2c-3.9,0-7.1,0.7-9.5,2.2c-3.7,2.2-4.5,5.1-4.5,7.2v33.3c0,0.3,0.3,0.7,0.7,0.7h6
			c0.3,0,0.7-0.3,0.7-0.7V473c0-2.1,0.8-2.9,1.5-3.3c1.1-0.8,2.9-1.2,5.2-1.2c2.2,0,3.9,0.4,5.1,1.2c0.6,0.4,1.5,1.3,1.5,3.3v26.8
			c0,1.7-0.5,2.9-1.2,3.7l-15.9,13c-2.2,2.3-3.3,5.1-3.3,8.4v18.2c0,2.1,0.8,5.1,4.5,7.3c2.4,1.5,5.6,2.2,9.4,2.2s7-0.7,9.3-2.2
			c3.7-2.2,4.5-5.2,4.5-7.3v-2l0,0C942.4,540.8,942.1,540.5,941.8,540.5z"/>
		<rect x="586" y="514.2" class="st1" width="16.9" height="5.8"/>
		<path class="st1" d="M422.5,491.9c-2.4-1.5-5.6-2.2-9.3-2.2c-3.9,0-7.1,0.7-9.5,2.2c-3,1.9-4.4,4.3-4.4,7.3v43.9
			c0,2.1,0.8,5.1,4.5,7.3c2.4,1.5,5.6,2.2,9.4,2.2s7-0.7,9.3-2.2c3.7-2.2,4.5-5.2,4.5-7.3v-43.9
			C426.9,496.2,425.5,493.8,422.5,491.9z M419.6,542.2c0,2.1-0.8,2.9-1.5,3.4c-1.1,0.8-2.9,1.2-5.1,1.2c-2.3,0-4-0.4-5.2-1.2
			c-0.6-0.5-1.5-1.3-1.5-3.4v-42c0-1.5,0.5-2.5,1.5-3.2c1.1-0.8,2.9-1.2,5.2-1.2c2.2,0,3.9,0.4,5.1,1.2c1,0.7,1.5,1.7,1.5,3.2V542.2
			z"/>
		<path class="st1" d="M458.2,491.9c-2.4-1.5-5.6-2.2-9.3-2.2c-3.9,0-7.1,0.7-9.5,2.2c-3,1.9-4.4,4.3-4.4,7.3v52.2
			c0,0.3,0.3,0.7,0.7,0.7h6c0.3,0,0.7-0.3,0.7-0.7v-51.2c0-1.5,0.5-2.5,1.5-3.2c1.1-0.8,2.9-1.2,5.2-1.2c2.2,0,3.9,0.4,5.1,1.2
			c1,0.7,1.5,1.7,1.5,3.2v1.1c0,0.3,0.3,0.7,0.7,0.7h6c0.3,0,0.7-0.3,0.7-0.7v-2C462.7,496.2,461.2,493.8,458.2,491.9z"/>
		<path class="st1" d="M495.6,463.1h-6c-0.3,0-0.7,0.3-0.7,0.7v78.5c0,2.1-0.8,2.9-1.5,3.4c-1.1,0.8-2.9,1.2-5.1,1.2
			c-2.3,0-4-0.4-5.2-1.2c-0.6-0.5-1.5-1.3-1.5-3.4v-42.1c0-1.5,0.5-2.5,1.5-3.2c1.1-0.8,2.9-1.2,5.2-1.2h1.1c0.3,0,0.7-0.3,0.7-0.7
			v-4.7c0-0.3-0.3-0.7-0.7-0.7h-1.1c-3.9,0-7.1,0.7-9.5,2.2c-3,1.9-4.4,4.3-4.4,7.3v43.9c0,2.1,0.8,5.1,4.5,7.3
			c2.4,1.5,5.6,2.2,9.4,2.2c3.8,0,7-0.7,9.3-2.2c3.7-2.2,4.5-5.2,4.5-7.3v-79.3C496.2,463.4,495.9,463.1,495.6,463.1z"/>
		<path class="st1" d="M527.5,464.7c-2.4-1.5-5.6-2.2-9.4-2.2c-3.9,0-7.1,0.7-9.4,2.2c-3.7,2.2-4.5,5.1-4.5,7.2v71.2
			c0,2.1,0.8,5.1,4.5,7.3c2.4,1.5,5.6,2.2,9.4,2.2c3.8,0,7-0.7,9.3-2.2c3.7-2.2,4.5-5.2,4.5-7.3v-9.3c0-0.3-0.3-0.7-0.7-0.7h-6
			c-0.3,0-0.7,0.3-0.7,0.7v8.4c0,2.1-0.8,2.9-1.5,3.4c-1.1,0.8-2.9,1.2-5.1,1.2c-2.3,0-4-0.4-5.2-1.2c-0.6-0.5-1.5-1.3-1.5-3.4
			v-69.3c0-2.1,0.8-2.9,1.5-3.3c1.1-0.8,2.9-1.2,5.2-1.2c2.2,0,3.9,0.4,5.1,1.2c0.6,0.4,1.5,1.3,1.5,3.3v32.3c0,0.3,0.3,0.7,0.7,0.7
			h6c0.3,0,0.7-0.3,0.7-0.7v-33.3C532,469.8,531.2,466.9,527.5,464.7z"/>
		<path class="st1" d="M973.7,464.7c-2.4-1.5-5.6-2.2-9.3-2.2c-3.9,0-7.1,0.7-9.5,2.2c-3.7,2.2-4.5,5.1-4.5,7.2v71.2
			c0,2.1,0.8,5.1,4.5,7.3c2.4,1.5,5.6,2.2,9.5,2.2c3.8,0,7-0.7,9.3-2.2c3.7-2.2,4.5-5.2,4.5-7.3v-71.2
			C978.2,469.8,977.4,466.9,973.7,464.7z M970.8,542.2c0,2.1-0.8,2.9-1.5,3.4c-1.1,0.8-2.9,1.2-5.1,1.2c-2.3,0-4-0.4-5.2-1.2
			c-0.6-0.5-1.5-1.3-1.5-3.4v-30.8l10.8,8.9c0,0,2.4,1.8,2.4,6.1L970.8,542.2L970.8,542.2z M970.8,513.3l-11-9.1
			c-0.6-0.6-2.1-2.4-2.1-6v-25.4c0-2.1,0.8-2.9,1.5-3.3c1.1-0.8,2.9-1.2,5.2-1.2c2.2,0,3.9,0.4,5.1,1.2c0.6,0.4,1.5,1.3,1.5,3.3
			L970.8,513.3L970.8,513.3z"/>
		<path class="st1" d="M996.2,464.8c-2.6-1.5-5.8-2.3-9.6-2.3h-1.1c-0.3,0-0.7,0.3-0.7,0.7v4.6c0,0.3,0.3,0.7,0.7,0.7h1.1
			c2.3,0,4.1,0.4,5.2,1.2c0.6,0.4,1.5,1.3,1.5,3.3v78.4c0,0.3,0.3,0.7,0.7,0.7h6c0.3,0,0.7-0.3,0.7-0.7v-79.5
			C1000.5,468.9,999,466.5,996.2,464.8z"/>
		<path class="st1" d="M390.5,463.1h-6c-0.3,0-0.7,0.3-0.7,0.7v78.5c0,1.7-0.3,2.9-1,3.6s-1.6,1-2.9,1s-2.2-0.3-2.9-1
			c-0.6-0.6-1-1.9-1-3.6v-51.9c0-0.3-0.3-0.7-0.7-0.7h-6c-0.3,0-0.7,0.3-0.7,0.7v51.8c0,1.7-0.3,2.9-1,3.6s-1.6,1-2.9,1
			s-2.2-0.3-2.9-1c-0.6-0.6-1-1.9-1-3.6v-31.1l0,0v-38.5c0-2.9-1.2-5.3-3.7-7.3c-1.8-1.5-4.3-2.2-7.4-2.2h-14.3
			c-0.4,0-0.6,0.4-0.4,0.8l2.4,4.8c0.1,0.2,0.3,0.3,0.5,0.3h11.9l0,0c1.3,0,2.2,0.3,2.9,1c0.6,0.6,1,1.9,1,3.6v1.7l0,0v67.9
			c0,2.9,1.2,5.3,3.7,7.3c1.9,1.5,4.3,2.2,7.5,2.2c2.9,0,5.3-0.7,7.2-2c0.2-0.2,0.5-0.2,0.7,0c1.9,1.4,4.3,2,7.2,2
			c3.1,0,5.6-0.7,7.5-2.2c2.5-1.9,3.8-4.4,3.8-7.3v-79.4C391.1,463.4,390.9,463.1,390.5,463.1z"/>
		<path class="st1" d="M711,527.1c-0.3-1,0.2-1.9,1.1-2.3c4.6-2,5.6-5.3,5.6-7.9v-53.1c0-0.3-0.3-0.7-0.7-0.7h-6
			c-0.3,0-0.7,0.3-0.7,0.7v52.1c0,2.1-0.8,2.9-1.5,3.4c-1.1,0.8-2.9,1.2-5.1,1.2H699c-1.1,0-2-0.8-2-2V511l0,0v-38.5
			c0-2.9-1.2-5.3-3.7-7.3c-1.9-1.5-4.3-2.2-7.5-2.2h-14.2c-0.4,0-0.6,0.4-0.4,0.7l2.4,4.8c0.1,0.2,0.3,0.3,0.5,0.3H686l0,0
			c1.3,0,2.2,0.3,2.9,1c0.6,0.6,1,1.9,1,3.6v7l0,0v70.9c0,0.3,0.3,0.7,0.7,0.7h6c0.3,0,0.7-0.3,0.7-0.7v-23.1c0-1.1,0.8-2,2-2h2.4
			c0.8,0,1.6,0.6,1.9,1.4l7.3,23.9c0.1,0.3,0.3,0.5,0.6,0.5h6.1c0.4,0,0.7-0.4,0.6-0.8L711,527.1z"/>
		<path class="st1" d="M1054.5,462.5h-32.1l0,0c-3.9,0-7,0.7-9.4,2.2c-3.7,2.2-4.5,5.1-4.5,7.2v71.2c0,2.1,0.8,5.1,4.5,7.3
			c2.4,1.5,5.6,2.2,9.5,2.2c3.8,0,7-0.7,9.3-2.2c3.7-2.2,4.5-5.2,4.5-7.3v-44c0-2.1-0.8-5.1-4.5-7.3c-2.4-1.5-5.6-2.2-9.3-2.2
			c-2.5,0-4.7,0.3-6.6,1v-17.7c0-2.1,0.8-2.9,1.5-3.3c1.1-0.8,2.9-1.2,5.2-1.2l0,0h29.6c0.2,0,0.4-0.1,0.4-0.3l2.4-4.8
			C1055.1,462.9,1054.9,462.5,1054.5,462.5z M1017.3,496.8c1.1-0.8,2.9-1.2,5.2-1.2c2.2,0,3.9,0.4,5.1,1.2c0.6,0.4,1.4,1.2,1.4,3.3
			v42.1c0,2.1-0.8,2.9-1.4,3.3c-1.1,0.8-2.9,1.2-5.1,1.2c-2.3,0-4.1-0.4-5.2-1.2c-0.6-0.4-1.4-1.2-1.4-3.3v-42
			C1015.8,498.1,1016.7,497.3,1017.3,496.8z"/>
		<path class="st1" d="M567.8,512.2v-13c0-3-1.5-5.5-4.5-7.3c-2.4-1.5-5.6-2.2-9.3-2.2c-3.9,0-7.1,0.7-9.5,2.2
			c-3,1.9-4.4,4.3-4.4,7.3v2c0,0.3,0.3,0.7,0.7,0.7h6c0.3,0,0.7-0.3,0.7-0.7v-1.1c0-1.5,0.5-2.5,1.5-3.2c1.1-0.8,2.9-1.2,5.2-1.2
			c2.2,0,3.9,0.4,5.1,1.2c1,0.7,1.5,1.7,1.5,3.2v12.1c0,1.1-0.8,2-2,2h-2.9l0,0H554c-3.9,0-7.1,0.7-9.4,2.2
			c-3.7,2.2-4.5,5.2-4.5,7.3v19.4c0,2.1,0.8,5.1,4.5,7.3c2.4,1.5,5.6,2.2,9.4,2.2c3.8,0,7-0.7,9.3-2.2c3.7-2.2,4.5-5.2,4.5-7.3V522
			c0-1.1,0.8-2,2-2h3.2v-5.7h-3.2C568.7,514.2,567.8,513.3,567.8,512.2z M560.5,542.2c0,2.1-0.8,2.9-1.5,3.4
			c-1.1,0.8-2.9,1.2-5.1,1.2c-2.3,0-4-0.4-5.2-1.2c-0.6-0.5-1.5-1.3-1.5-3.4v-17.6c0-2.1,0.8-2.9,1.5-3.4c1.1-0.8,2.9-1.2,5.2-1.2
			h1.7l0,0h2.9c1.1,0,2,0.8,2,2L560.5,542.2L560.5,542.2z"/>
		<path class="st1" d="M663.3,514.2H652v5.8h8.9c0.2,0,0.4-0.1,0.5-0.3l2.4-4.8C664,514.6,663.7,514.2,663.3,514.2z"/>
		<path class="st1" d="M771.8,520H793c0.2,0,0.4-0.1,0.5-0.3l2.4-4.8c0.2-0.3-0.1-0.7-0.5-0.7h-23.6L771.8,520L771.8,520z"/>
		<path class="st1" d="M820.6,491.9c-2.4-1.5-5.6-2.2-9.3-2.2c-3.9,0-7.1,0.7-9.5,2.2c-3,1.9-4.4,4.3-4.4,7.3v9.5
			c0,3.4,1.1,6.2,3.5,8.5l15.6,12.8c0.9,0.9,1.3,2.1,1.3,3.8v8.3c0,2.1-0.8,2.9-1.5,3.4c-1.1,0.8-2.9,1.2-5.1,1.2
			c-2.3,0-4-0.4-5.2-1.2c-0.6-0.5-1.5-1.3-1.5-3.4v-9.3c0-0.3-0.3-0.7-0.7-0.7h-6c-0.3,0-0.7,0.3-0.7,0.7V543c0,2.1,0.8,5.1,4.5,7.3
			c2.4,1.5,5.6,2.2,9.4,2.2c3.8,0,7-0.7,9.3-2.2c3.7-2.2,4.5-5.2,4.5-7.3v-9.3c0-3.3-1.1-6.1-3.5-8.5l-15.6-12.8
			c-0.9-0.9-1.4-2.1-1.4-3.8v-8.5c0-1.5,0.5-2.5,1.5-3.2c1.1-0.8,2.9-1.2,5.2-1.2c2.2,0,3.9,0.4,5.1,1.2c1,0.7,1.5,1.7,1.5,3.2v10.5
			c0,0.3,0.3,0.7,0.7,0.7h6c0.3,0,0.7-0.3,0.7-0.7v-11.4C825.1,496.2,823.6,493.8,820.6,491.9z"/>
		<path class="st1" d="M782,551.4c0,0.3,0.3,0.7,0.7,0.7h6c0.3,0,0.7-0.3,0.7-0.7V523h-7.3L782,551.4L782,551.4z"/>
		<path class="st1" d="M609.6,491.9c-1.9-1.5-4.3-2.2-7.5-2.2c-3,0-5.6,0.7-7.5,2.2c-2-1.5-4.5-2.2-7.5-2.2c-3.1,0-5.6,0.7-7.5,2.2
			c-2.5,1.9-3.8,4.4-3.8,7.3v15v5.8v31.3c0,0.3,0.3,0.7,0.7,0.7h6c0.3,0,0.7-0.3,0.7-0.7v-31.4v-5.8V500c0-1.6,0.3-2.8,1-3.5
			s1.6-1,2.9-1s2.2,0.3,2.9,1s1,1.8,1,3.5v11.1h7.3V500c0-1.6,0.3-2.8,1-3.5s1.6-1,2.9-1c1.3,0,2.2,0.3,2.9,1s1,1.8,1,3.5v14.1v5.8
			v31.3c0,0.3,0.3,0.7,0.7,0.7h6c0.3,0,0.7-0.3,0.7-0.7v-31.4V514v-15C613.3,496.3,612,493.9,609.6,491.9z"/>
		<path class="st1" d="M590.9,551.4c0,0.3,0.3,0.7,0.7,0.7h6c0.3,0,0.7-0.3,0.7-0.7V523H591L590.9,551.4L590.9,551.4z"/>
		<path class="st1" d="M775.5,495.7c2.2,0,3.9,0.4,5.1,1.2c1,0.7,1.5,1.7,1.5,3.2v11.1h7.3v-12c0-3-1.5-5.5-4.5-7.3
			c-2.4-1.5-5.6-2.2-9.3-2.2c-3,0-5.5,0.4-7.6,1.3l0,0c-1.5,0.8-2.8,0.4-3.3,0.2l-0.4-0.2l0,0l-2.2-1.1l0,0c-0.2-0.1-0.3,0-0.3,0.2
			l0,0l0,0v31.2l0,0v30.1c0,0.3,0.3,0.7,0.7,0.7h6c0.3,0,0.7-0.3,0.7-0.7v-30.1v-21.1c0-1.5,0.4-2.5,1.5-3.2
			C771.4,496.1,773.2,495.7,775.5,495.7L775.5,495.7z"/>
		<path class="st1" d="M621.3,522.9v18.7v27.6c0,0.2,0.1,0.4,0.3,0.5l6.3,3.1c0.3,0.2,0.7-0.1,0.7-0.5v-30.7v-18.7H621.3
			L621.3,522.9z"/>
		<path class="st1" d="M644.6,491.9c-2.4-1.5-5.6-2.2-9.3-2.2c-3.9,0-7.1,0.7-9.5,2.2c-3,1.9-4.4,4.3-4.4,7.3v12h7.3v-11.1
			c0-1.5,0.5-2.5,1.5-3.2c1.1-0.8,2.9-1.2,5.2-1.2c2.2,0,3.9,0.4,5.1,1.2c1,0.7,1.5,1.7,1.5,3.2v14.1v5.8v22.2
			c0,2.1-0.8,2.9-1.5,3.3c-1.1,0.8-2.9,1.2-5.1,1.2h-1.1l0,0c-0.3,0-0.7,0.3-0.7,0.7v4.6c0,0.3,0.3,0.7,0.7,0.7l0,0h1.1
			c3.8,0,7-0.7,9.3-2.2c3.7-2.2,4.5-5.2,4.5-7.3v-23.1v-5.9v-15C649,496.2,647.6,493.8,644.6,491.9z"/>
		<path class="st1" d="M894.3,463.1H880c-3.1,0-5.6,0.7-7.5,2.2c-2.5,1.9-3.7,4.4-3.7,7.3v3.6v1.6v2.6v1.1v2.2
			c0,0.2,0.1,0.4,0.3,0.4l6.3,3.1c0.3,0.2,0.7-0.1,0.7-0.4v-2.9v-3.6v-2.6v-1.5v-2.7c0-1.7,0.3-2.9,1-3.6s1.6-1,2.9-1l0,0h11.9
			c0.2,0,0.4-0.1,0.5-0.3l2.4-4.8C895,463.5,894.7,463.1,894.3,463.1z"/>
		<path class="st1" d="M875.9,492.9l-6.3-3.2c-0.3-0.2-0.7,0.1-0.7,0.5v2.7v25.9v18.7v13.8c0,0.3,0.3,0.7,0.7,0.7h6
			c0.3,0,0.7-0.3,0.7-0.7v-13.8v-18.7v-19.5v-6C876.2,493.2,876.1,493,875.9,492.9z"/>
	</g>
	<g>
		<g>
			<rect x="616.2" y="514.2" width="22.6" height="5.8"/>
			<path d="M856.4,491.9c-2.4-1.5-5.6-2.2-9.3-2.2c-3.9,0-7.1,0.7-9.5,2.2c-3,1.9-4.4,4.3-4.4,7.3v2l0,0c0,0.3,0.3,0.7,0.7,0.7h6
				c0.3,0,0.7-0.3,0.7-0.7l0,0v-1.1c0-1.5,0.5-2.5,1.5-3.2c1.1-0.8,2.9-1.2,5.2-1.2c2.2,0,3.9,0.4,5.1,1.2c1,0.7,1.5,1.7,1.5,3.2
				v42.1c0,2.1-0.8,2.9-1.5,3.4c-1.1,0.8-2.9,1.2-5.1,1.2c-2.3,0-4.1-0.4-5.2-1.2c-0.6-0.5-1.5-1.3-1.5-3.4v-17.6
				c0-2.1,0.8-2.9,1.5-3.4c1.1-0.8,2.9-1.2,5.2-1.2h1.1l0,0c0.3,0,0.7-0.3,0.7-0.7v-4.5c0-0.3-0.3-0.7-0.7-0.7h-1.1
				c-3.9,0-7.1,0.7-9.5,2.2c-3.7,2.2-4.5,5.2-4.5,7.3V543c0,2.1,0.8,5.1,4.5,7.3c2.4,1.5,5.6,2.2,9.5,2.2c3.8,0,7-0.7,9.3-2.2
				c3.7-2.2,4.5-5.2,4.5-7.3v-43.9C860.9,496.2,859.4,493.8,856.4,491.9z"/>
			<path d="M753.6,512.2v-13c0-3-1.5-5.5-4.5-7.3c-2.4-1.5-5.6-2.2-9.3-2.2c-3.9,0-7.1,0.7-9.5,2.2c-3,1.9-4.4,4.3-4.4,7.3v2
				c0,0.3,0.3,0.7,0.7,0.7h6c0.3,0,0.7-0.3,0.7-0.7v-1.1c0-1.5,0.5-2.5,1.5-3.2c1.1-0.8,2.9-1.2,5.2-1.2c2.2,0,3.9,0.4,5.1,1.2
				c1,0.7,1.5,1.7,1.5,3.2v12.1c0,1.1-0.8,2-2,2h-2.9l0,0H740c-3.9,0-7.1,0.7-9.4,2.2c-3.7,2.2-4.5,5.2-4.5,7.3v19.4
				c0,2.1,0.8,5.1,4.5,7.3c2.4,1.5,5.6,2.2,9.4,2.2c3.8,0,7-0.7,9.3-2.2c3.7-2.2,4.5-5.2,4.5-7.3V522c0-1.1,0.8-2,2-2h3.1v-5.7h-3.1
				C754.4,514.2,753.6,513.3,753.6,512.2z M746.2,542.2c0,2.1-0.8,2.9-1.5,3.4c-1.1,0.8-2.9,1.2-5.1,1.2c-2.3,0-4-0.4-5.2-1.2
				c-0.6-0.5-1.5-1.3-1.5-3.4v-17.6c0-2.1,0.8-2.9,1.5-3.4c1.1-0.8,2.9-1.2,5.2-1.2h1.7l0,0h2.9c1.1,0,2,0.8,2,2L746.2,542.2
				L746.2,542.2z"/>
			<path d="M941.8,540.5h-6c-0.3,0-0.7,0.3-0.7,0.7l0,0v1.1c0,2.1-0.8,2.9-1.5,3.4c-1.1,0.8-2.9,1.2-5.1,1.2c-2.3,0-4.1-0.4-5.2-1.2
				c-0.6-0.5-1.5-1.3-1.5-3.4V525c0-1.7,0.4-2.9,1.2-3.7l15.9-13c2.2-2.3,3.3-5.1,3.3-8.4V472c0-2.1-0.8-5-4.5-7.2
				c-2.4-1.5-5.6-2.2-9.3-2.2c-3.9,0-7.1,0.7-9.5,2.2c-3.7,2.2-4.5,5.1-4.5,7.2v33.3c0,0.3,0.3,0.7,0.7,0.7h6c0.3,0,0.7-0.3,0.7-0.7
				V473c0-2.1,0.8-2.9,1.5-3.3c1.1-0.8,2.9-1.2,5.2-1.2c2.2,0,3.9,0.4,5.1,1.2c0.6,0.4,1.5,1.3,1.5,3.3v26.8c0,1.7-0.5,2.9-1.2,3.7
				l-15.9,13c-2.2,2.3-3.3,5.1-3.3,8.4v18.2c0,2.1,0.8,5.1,4.5,7.3c2.4,1.5,5.6,2.2,9.4,2.2s7-0.7,9.3-2.2c3.7-2.2,4.5-5.2,4.5-7.3
				v-2l0,0C942.4,540.8,942.1,540.5,941.8,540.5z"/>
			<rect x="586" y="514.2" width="16.9" height="5.8"/>
			<path d="M422.5,491.9c-2.4-1.5-5.6-2.2-9.3-2.2c-3.9,0-7.1,0.7-9.5,2.2c-3,1.9-4.4,4.3-4.4,7.3v43.9c0,2.1,0.8,5.1,4.5,7.3
				c2.4,1.5,5.6,2.2,9.4,2.2s7-0.7,9.3-2.2c3.7-2.2,4.5-5.2,4.5-7.3v-43.9C426.9,496.2,425.5,493.8,422.5,491.9z M419.6,542.2
				c0,2.1-0.8,2.9-1.5,3.4c-1.1,0.8-2.9,1.2-5.1,1.2c-2.3,0-4-0.4-5.2-1.2c-0.6-0.5-1.5-1.3-1.5-3.4v-42c0-1.5,0.5-2.5,1.5-3.2
				c1.1-0.8,2.9-1.2,5.2-1.2c2.2,0,3.9,0.4,5.1,1.2c1,0.7,1.5,1.7,1.5,3.2V542.2z"/>
			<path d="M458.2,491.9c-2.4-1.5-5.6-2.2-9.3-2.2c-3.9,0-7.1,0.7-9.5,2.2c-3,1.9-4.4,4.3-4.4,7.3v52.2c0,0.3,0.3,0.7,0.7,0.7h6
				c0.3,0,0.7-0.3,0.7-0.7v-51.2c0-1.5,0.5-2.5,1.5-3.2c1.1-0.8,2.9-1.2,5.2-1.2c2.2,0,3.9,0.4,5.1,1.2c1,0.7,1.5,1.7,1.5,3.2v1.1
				c0,0.3,0.3,0.7,0.7,0.7h6c0.3,0,0.7-0.3,0.7-0.7v-2C462.7,496.2,461.2,493.8,458.2,491.9z"/>
			<path d="M495.6,463.1h-6c-0.3,0-0.7,0.3-0.7,0.7v78.5c0,2.1-0.8,2.9-1.5,3.4c-1.1,0.8-2.9,1.2-5.1,1.2c-2.3,0-4-0.4-5.2-1.2
				c-0.6-0.5-1.5-1.3-1.5-3.4v-42.1c0-1.5,0.5-2.5,1.5-3.2c1.1-0.8,2.9-1.2,5.2-1.2h1.1c0.3,0,0.7-0.3,0.7-0.7v-4.7
				c0-0.3-0.3-0.7-0.7-0.7h-1.1c-3.9,0-7.1,0.7-9.5,2.2c-3,1.9-4.4,4.3-4.4,7.3v43.9c0,2.1,0.8,5.1,4.5,7.3c2.4,1.5,5.6,2.2,9.4,2.2
				c3.8,0,7-0.7,9.3-2.2c3.7-2.2,4.5-5.2,4.5-7.3v-79.3C496.2,463.4,495.9,463.1,495.6,463.1z"/>
			<path d="M527.5,464.7c-2.4-1.5-5.6-2.2-9.4-2.2c-3.9,0-7.1,0.7-9.4,2.2c-3.7,2.2-4.5,5.1-4.5,7.2v71.2c0,2.1,0.8,5.1,4.5,7.3
				c2.4,1.5,5.6,2.2,9.4,2.2c3.8,0,7-0.7,9.3-2.2c3.7-2.2,4.5-5.2,4.5-7.3v-9.3c0-0.3-0.3-0.7-0.7-0.7h-6c-0.3,0-0.7,0.3-0.7,0.7
				v8.4c0,2.1-0.8,2.9-1.5,3.4c-1.1,0.8-2.9,1.2-5.1,1.2c-2.3,0-4-0.4-5.2-1.2c-0.6-0.5-1.5-1.3-1.5-3.4v-69.3
				c0-2.1,0.8-2.9,1.5-3.3c1.1-0.8,2.9-1.2,5.2-1.2c2.2,0,3.9,0.4,5.1,1.2c0.6,0.4,1.5,1.3,1.5,3.3v32.3c0,0.3,0.3,0.7,0.7,0.7h6
				c0.3,0,0.7-0.3,0.7-0.7v-33.3C532,469.8,531.2,466.9,527.5,464.7z"/>
			<path d="M973.7,464.7c-2.4-1.5-5.6-2.2-9.3-2.2c-3.9,0-7.1,0.7-9.5,2.2c-3.7,2.2-4.5,5.1-4.5,7.2v71.2c0,2.1,0.8,5.1,4.5,7.3
				c2.4,1.5,5.6,2.2,9.5,2.2c3.8,0,7-0.7,9.3-2.2c3.7-2.2,4.5-5.2,4.5-7.3v-71.2C978.2,469.8,977.4,466.9,973.7,464.7z M970.8,542.2
				c0,2.1-0.8,2.9-1.5,3.4c-1.1,0.8-2.9,1.2-5.1,1.2c-2.3,0-4-0.4-5.2-1.2c-0.6-0.5-1.5-1.3-1.5-3.4v-30.8l10.8,8.9
				c0,0,2.4,1.8,2.4,6.1L970.8,542.2L970.8,542.2z M970.8,513.3l-11-9.1c-0.6-0.6-2.1-2.4-2.1-6v-25.4c0-2.1,0.8-2.9,1.5-3.3
				c1.1-0.8,2.9-1.2,5.2-1.2c2.2,0,3.9,0.4,5.1,1.2c0.6,0.4,1.5,1.3,1.5,3.3L970.8,513.3L970.8,513.3z"/>
			<path d="M996.2,464.8c-2.6-1.5-5.8-2.3-9.6-2.3h-1.1c-0.3,0-0.7,0.3-0.7,0.7v4.6c0,0.3,0.3,0.7,0.7,0.7h1.1
				c2.3,0,4.1,0.4,5.2,1.2c0.6,0.4,1.5,1.3,1.5,3.3v78.4c0,0.3,0.3,0.7,0.7,0.7h6c0.3,0,0.7-0.3,0.7-0.7v-79.5
				C1000.5,468.9,999,466.5,996.2,464.8z"/>
			<path d="M390.5,463.1h-6c-0.3,0-0.7,0.3-0.7,0.7v78.5c0,1.7-0.3,2.9-1,3.6s-1.6,1-2.9,1s-2.2-0.3-2.9-1c-0.6-0.6-1-1.9-1-3.6
				v-51.9c0-0.3-0.3-0.7-0.7-0.7h-6c-0.3,0-0.7,0.3-0.7,0.7v51.8c0,1.7-0.3,2.9-1,3.6s-1.6,1-2.9,1s-2.2-0.3-2.9-1
				c-0.6-0.6-1-1.9-1-3.6v-31.1l0,0v-38.5c0-2.9-1.2-5.3-3.7-7.3c-1.8-1.5-4.3-2.2-7.4-2.2h-14.3c-0.4,0-0.6,0.4-0.4,0.8l2.4,4.8
				c0.1,0.2,0.3,0.3,0.5,0.3h11.9l0,0c1.3,0,2.2,0.3,2.9,1c0.6,0.6,1,1.9,1,3.6v1.7l0,0v67.9c0,2.9,1.2,5.3,3.7,7.3
				c1.9,1.5,4.3,2.2,7.5,2.2c2.9,0,5.3-0.7,7.2-2c0.2-0.2,0.5-0.2,0.7,0c1.9,1.4,4.3,2,7.2,2c3.1,0,5.6-0.7,7.5-2.2
				c2.5-1.9,3.8-4.4,3.8-7.3v-79.4C391.1,463.4,390.9,463.1,390.5,463.1z"/>
			<path d="M711,527.1c-0.3-1,0.2-1.9,1.1-2.3c4.6-2,5.6-5.3,5.6-7.9v-53.1c0-0.3-0.3-0.7-0.7-0.7h-6c-0.3,0-0.7,0.3-0.7,0.7v52.1
				c0,2.1-0.8,2.9-1.5,3.4c-1.1,0.8-2.9,1.2-5.1,1.2H699c-1.1,0-2-0.8-2-2V511l0,0v-38.5c0-2.9-1.2-5.3-3.7-7.3
				c-1.9-1.5-4.3-2.2-7.5-2.2h-14.2c-0.4,0-0.6,0.4-0.4,0.7l2.4,4.8c0.1,0.2,0.3,0.3,0.5,0.3H686l0,0c1.3,0,2.2,0.3,2.9,1
				c0.6,0.6,1,1.9,1,3.6v7l0,0v70.9c0,0.3,0.3,0.7,0.7,0.7h6c0.3,0,0.7-0.3,0.7-0.7v-23.1c0-1.1,0.8-2,2-2h2.4
				c0.8,0,1.6,0.6,1.9,1.4l7.3,23.9c0.1,0.3,0.3,0.5,0.6,0.5h6.1c0.4,0,0.7-0.4,0.6-0.8L711,527.1z"/>
			<path d="M1054.5,462.5h-32.1l0,0c-3.9,0-7,0.7-9.4,2.2c-3.7,2.2-4.5,5.1-4.5,7.2v71.2c0,2.1,0.8,5.1,4.5,7.3
				c2.4,1.5,5.6,2.2,9.5,2.2c3.8,0,7-0.7,9.3-2.2c3.7-2.2,4.5-5.2,4.5-7.3v-44c0-2.1-0.8-5.1-4.5-7.3c-2.4-1.5-5.6-2.2-9.3-2.2
				c-2.5,0-4.7,0.3-6.6,1v-17.7c0-2.1,0.8-2.9,1.5-3.3c1.1-0.8,2.9-1.2,5.2-1.2l0,0h29.6c0.2,0,0.4-0.1,0.4-0.3l2.4-4.8
				C1055.1,462.9,1054.9,462.5,1054.5,462.5z M1017.3,496.8c1.1-0.8,2.9-1.2,5.2-1.2c2.2,0,3.9,0.4,5.1,1.2c0.6,0.4,1.4,1.2,1.4,3.3
				v42.1c0,2.1-0.8,2.9-1.4,3.3c-1.1,0.8-2.9,1.2-5.1,1.2c-2.3,0-4.1-0.4-5.2-1.2c-0.6-0.4-1.4-1.2-1.4-3.3v-42
				C1015.8,498.1,1016.7,497.3,1017.3,496.8z"/>
			<path d="M567.8,512.2v-13c0-3-1.5-5.5-4.5-7.3c-2.4-1.5-5.6-2.2-9.3-2.2c-3.9,0-7.1,0.7-9.5,2.2c-3,1.9-4.4,4.3-4.4,7.3v2
				c0,0.3,0.3,0.7,0.7,0.7h6c0.3,0,0.7-0.3,0.7-0.7v-1.1c0-1.5,0.5-2.5,1.5-3.2c1.1-0.8,2.9-1.2,5.2-1.2c2.2,0,3.9,0.4,5.1,1.2
				c1,0.7,1.5,1.7,1.5,3.2v12.1c0,1.1-0.8,2-2,2h-2.9l0,0H554c-3.9,0-7.1,0.7-9.4,2.2c-3.7,2.2-4.5,5.2-4.5,7.3v19.4
				c0,2.1,0.8,5.1,4.5,7.3c2.4,1.5,5.6,2.2,9.4,2.2c3.8,0,7-0.7,9.3-2.2c3.7-2.2,4.5-5.2,4.5-7.3V522c0-1.1,0.8-2,2-2h3.2v-5.7h-3.2
				C568.7,514.2,567.8,513.3,567.8,512.2z M560.5,542.2c0,2.1-0.8,2.9-1.5,3.4c-1.1,0.8-2.9,1.2-5.1,1.2c-2.3,0-4-0.4-5.2-1.2
				c-0.6-0.5-1.5-1.3-1.5-3.4v-17.6c0-2.1,0.8-2.9,1.5-3.4c1.1-0.8,2.9-1.2,5.2-1.2h1.7l0,0h2.9c1.1,0,2,0.8,2,2L560.5,542.2
				L560.5,542.2z"/>
			<path d="M663.3,514.2H652v5.8h8.9c0.2,0,0.4-0.1,0.5-0.3l2.4-4.8C664,514.6,663.7,514.2,663.3,514.2z"/>
			<path d="M771.8,520H793c0.2,0,0.4-0.1,0.5-0.3l2.4-4.8c0.2-0.3-0.1-0.7-0.5-0.7h-23.6L771.8,520L771.8,520z"/>
			<path d="M820.6,491.9c-2.4-1.5-5.6-2.2-9.3-2.2c-3.9,0-7.1,0.7-9.5,2.2c-3,1.9-4.4,4.3-4.4,7.3v9.5c0,3.4,1.1,6.2,3.5,8.5
				l15.6,12.8c0.9,0.9,1.3,2.1,1.3,3.8v8.3c0,2.1-0.8,2.9-1.5,3.4c-1.1,0.8-2.9,1.2-5.1,1.2c-2.3,0-4-0.4-5.2-1.2
				c-0.6-0.5-1.5-1.3-1.5-3.4v-9.3c0-0.3-0.3-0.7-0.7-0.7h-6c-0.3,0-0.7,0.3-0.7,0.7V543c0,2.1,0.8,5.1,4.5,7.3
				c2.4,1.5,5.6,2.2,9.4,2.2c3.8,0,7-0.7,9.3-2.2c3.7-2.2,4.5-5.2,4.5-7.3v-9.3c0-3.3-1.1-6.1-3.5-8.5l-15.6-12.8
				c-0.9-0.9-1.4-2.1-1.4-3.8v-8.5c0-1.5,0.5-2.5,1.5-3.2c1.1-0.8,2.9-1.2,5.2-1.2c2.2,0,3.9,0.4,5.1,1.2c1,0.7,1.5,1.7,1.5,3.2
				v10.5c0,0.3,0.3,0.7,0.7,0.7h6c0.3,0,0.7-0.3,0.7-0.7v-11.4C825.1,496.2,823.6,493.8,820.6,491.9z"/>
			<path d="M782,551.4c0,0.3,0.3,0.7,0.7,0.7h6c0.3,0,0.7-0.3,0.7-0.7V523h-7.3L782,551.4L782,551.4z"/>
			<path d="M609.6,491.9c-1.9-1.5-4.3-2.2-7.5-2.2c-3,0-5.6,0.7-7.5,2.2c-2-1.5-4.5-2.2-7.5-2.2c-3.1,0-5.6,0.7-7.5,2.2
				c-2.5,1.9-3.8,4.4-3.8,7.3v15v5.8v31.3c0,0.3,0.3,0.7,0.7,0.7h6c0.3,0,0.7-0.3,0.7-0.7v-31.4v-5.8V500c0-1.6,0.3-2.8,1-3.5
				s1.6-1,2.9-1s2.2,0.3,2.9,1s1,1.8,1,3.5v11.1h7.3V500c0-1.6,0.3-2.8,1-3.5s1.6-1,2.9-1c1.3,0,2.2,0.3,2.9,1s1,1.8,1,3.5v14.1v5.8
				v31.3c0,0.3,0.3,0.7,0.7,0.7h6c0.3,0,0.7-0.3,0.7-0.7v-31.4V514v-15C613.3,496.3,612,493.9,609.6,491.9z"/>
			<path d="M590.9,551.4c0,0.3,0.3,0.7,0.7,0.7h6c0.3,0,0.7-0.3,0.7-0.7V523H591L590.9,551.4L590.9,551.4z"/>
			<path d="M775.5,495.7c2.2,0,3.9,0.4,5.1,1.2c1,0.7,1.5,1.7,1.5,3.2v11.1h7.3v-12c0-3-1.5-5.5-4.5-7.3c-2.4-1.5-5.6-2.2-9.3-2.2
				c-3,0-5.5,0.4-7.6,1.3l0,0c-1.5,0.8-2.8,0.4-3.3,0.2l-0.4-0.2l0,0l-2.2-1.1l0,0c-0.2-0.1-0.3,0-0.3,0.2l0,0l0,0v31.2l0,0v30.1
				c0,0.3,0.3,0.7,0.7,0.7h6c0.3,0,0.7-0.3,0.7-0.7v-30.1v-21.1c0-1.5,0.4-2.5,1.5-3.2C771.4,496.1,773.2,495.7,775.5,495.7
				L775.5,495.7z"/>
			<g>
				<path d="M621.3,522.9v18.7v27.6c0,0.2,0.1,0.4,0.3,0.5l6.3,3.1c0.3,0.2,0.7-0.1,0.7-0.5v-30.7v-18.7H621.3L621.3,522.9z"/>
				<path d="M644.6,491.9c-2.4-1.5-5.6-2.2-9.3-2.2c-3.9,0-7.1,0.7-9.5,2.2c-3,1.9-4.4,4.3-4.4,7.3v12h7.3v-11.1
					c0-1.5,0.5-2.5,1.5-3.2c1.1-0.8,2.9-1.2,5.2-1.2c2.2,0,3.9,0.4,5.1,1.2c1,0.7,1.5,1.7,1.5,3.2v14.1v5.8v22.2
					c0,2.1-0.8,2.9-1.5,3.3c-1.1,0.8-2.9,1.2-5.1,1.2h-1.1l0,0c-0.3,0-0.7,0.3-0.7,0.7v4.6c0,0.3,0.3,0.7,0.7,0.7l0,0h1.1
					c3.8,0,7-0.7,9.3-2.2c3.7-2.2,4.5-5.2,4.5-7.3v-23.1v-5.9v-15C649,496.2,647.6,493.8,644.6,491.9z"/>
			</g>
			<path d="M894.3,463.1H880c-3.1,0-5.6,0.7-7.5,2.2c-2.5,1.9-3.7,4.4-3.7,7.3v3.6v1.6v2.6v1.1v2.2c0,0.2,0.1,0.4,0.3,0.4l6.3,3.1
				c0.3,0.2,0.7-0.1,0.7-0.4v-2.9v-3.6v-2.6v-1.5v-2.7c0-1.7,0.3-2.9,1-3.6s1.6-1,2.9-1l0,0h11.9c0.2,0,0.4-0.1,0.5-0.3l2.4-4.8
				C895,463.5,894.7,463.1,894.3,463.1z"/>
			<path d="M875.9,492.9l-6.3-3.2c-0.3-0.2-0.7,0.1-0.7,0.5v2.7v25.9v18.7v13.8c0,0.3,0.3,0.7,0.7,0.7h6c0.3,0,0.7-0.3,0.7-0.7
				v-13.8v-18.7v-19.5v-6C876.2,493.2,876.1,493,875.9,492.9z"/>
		</g>
	</g>
</g>
</svg>
